<svg width="1312" height="633" viewBox="0 0 1312 633" fill="none" xmlns="http://www.w3.org/2000/svg">
<path d="M831.827 383.435C831.827 327.739 786.647 195.577 730.913 195.577C675.18 195.577 630 327.739 630 383.435C630.018 410.187 640.658 435.837 659.581 454.747C678.504 473.657 704.161 484.28 730.913 484.28C757.666 484.28 783.323 473.657 802.246 454.747C821.169 435.837 831.809 410.187 831.827 383.435Z" fill="#E6E6E6"/>
<path d="M731 632C731.131 632 731.261 631.978 731.383 631.936C731.504 631.894 731.614 631.833 731.707 631.755C731.8 631.677 731.873 631.585 731.924 631.483C731.974 631.381 732 631.272 732 631.162V279.835C731.999 279.614 731.893 279.401 731.706 279.244C731.518 279.088 731.265 279 731 279C730.735 279 730.482 279.088 730.294 279.244C730.107 279.401 730.001 279.614 730 279.835V631.162C730 631.272 730.026 631.381 730.076 631.483C730.127 631.585 730.2 631.677 730.293 631.755C730.386 631.833 730.496 631.894 730.617 631.936C730.739 631.978 730.869 632 731 632V632Z" fill="#3F3D56"/>
<path d="M730.914 347.391C731.023 347.391 731.131 347.37 731.231 347.328C731.332 347.287 731.423 347.226 731.5 347.148L771.442 307.234C771.597 307.079 771.685 306.867 771.685 306.648C771.684 306.428 771.597 306.217 771.441 306.061C771.286 305.906 771.075 305.818 770.855 305.818C770.635 305.818 770.424 305.906 770.268 306.062L730.327 345.976C730.211 346.092 730.132 346.24 730.1 346.4C730.068 346.561 730.084 346.728 730.147 346.88C730.21 347.031 730.316 347.161 730.453 347.252C730.589 347.343 730.75 347.391 730.914 347.391V347.391Z" fill="#3F3D56"/>
<path d="M730.914 416.491C731.078 416.491 731.238 416.442 731.375 416.351C731.511 416.26 731.618 416.131 731.68 415.979C731.743 415.828 731.76 415.661 731.728 415.5C731.696 415.339 731.617 415.191 731.501 415.075L664.612 348.231C664.535 348.154 664.443 348.093 664.343 348.051C664.242 348.009 664.134 347.988 664.025 347.988C663.916 347.988 663.808 348.009 663.708 348.051C663.607 348.093 663.516 348.154 663.438 348.231C663.361 348.308 663.3 348.399 663.259 348.5C663.217 348.6 663.195 348.708 663.195 348.817C663.195 348.926 663.217 349.034 663.258 349.135C663.3 349.235 663.361 349.327 663.438 349.404L730.327 416.248C730.404 416.325 730.496 416.386 730.596 416.428C730.697 416.47 730.805 416.491 730.914 416.491V416.491Z" fill="#3F3D56"/>
<path d="M1272 329.926C1272 261.485 1216.62 99.0774 1148.31 99.0774C1080 99.0774 1024.62 261.485 1024.62 329.926C1024.62 362.792 1037.66 394.313 1060.85 417.553C1084.05 440.793 1115.51 453.849 1148.31 453.849C1181.12 453.849 1212.58 440.793 1235.77 417.553C1258.97 394.313 1272 362.792 1272 329.926Z" fill="#F2F2F2"/>
<path d="M1148.92 630.029C1149.24 630.029 1149.54 629.922 1149.77 629.731C1150 629.54 1150.12 629.282 1150.12 629.012V202.665C1150.12 202.395 1150 202.136 1149.77 201.946C1149.54 201.755 1149.24 201.648 1148.92 201.648C1148.6 201.648 1148.29 201.755 1148.06 201.946C1147.84 202.136 1147.71 202.395 1147.71 202.665V629.012C1147.71 629.282 1147.84 629.54 1148.06 629.731C1148.29 629.922 1148.6 630.029 1148.92 630.029Z" fill="#3F3D56"/>
<path d="M1148.72 284.91C1148.85 284.911 1148.98 284.884 1149.11 284.834C1149.23 284.783 1149.34 284.708 1149.44 284.614L1198.1 235.95C1198.29 235.76 1198.39 235.503 1198.39 235.236C1198.39 234.969 1198.28 234.714 1198.09 234.525C1197.91 234.336 1197.65 234.229 1197.38 234.229C1197.12 234.228 1196.86 234.333 1196.67 234.52L1148.01 283.185C1147.86 283.326 1147.77 283.506 1147.73 283.702C1147.69 283.898 1147.71 284.102 1147.79 284.286C1147.86 284.471 1147.99 284.629 1148.16 284.74C1148.32 284.851 1148.52 284.91 1148.72 284.91V284.91Z" fill="#3F3D56"/>
<path d="M1149.1 370.587C1149.3 370.587 1149.5 370.527 1149.67 370.414C1149.84 370.302 1149.97 370.142 1150.04 369.956C1150.12 369.769 1150.14 369.563 1150.1 369.365C1150.06 369.166 1149.97 368.984 1149.82 368.841L1067.39 286.412C1067.2 286.222 1066.94 286.116 1066.67 286.117C1066.4 286.118 1066.14 286.226 1065.95 286.417C1065.76 286.608 1065.65 286.866 1065.65 287.136C1065.65 287.406 1065.76 287.666 1065.95 287.858L1148.38 370.287C1148.47 370.382 1148.58 370.458 1148.71 370.509C1148.83 370.561 1148.97 370.587 1149.1 370.587V370.587Z" fill="#3F3D56"/>
<path d="M1114.67 476.318C1114.48 475.073 1114.58 473.802 1114.94 472.595C1115.3 471.389 1115.92 470.277 1116.76 469.336C1117.59 468.396 1118.63 467.651 1119.78 467.153C1120.94 466.656 1122.19 466.418 1123.45 466.456L1178.62 410.68L1189.51 425.914L1131.86 475.95C1131.66 478.06 1130.69 480.022 1129.13 481.463C1127.58 482.905 1125.55 483.726 1123.43 483.772C1121.31 483.817 1119.25 483.083 1117.63 481.71C1116.02 480.336 1114.96 478.418 1114.67 476.318V476.318Z" fill="#FFB8B8"/>
<path d="M1140.8 444.111L1154.88 458.176C1155.55 458.846 1156.46 459.223 1157.41 459.227C1158.36 459.231 1159.28 458.861 1159.96 458.196L1198.43 420.371C1199.76 419.063 1200.82 417.504 1201.54 415.785C1202.27 414.065 1202.64 412.22 1202.65 410.354C1202.66 408.488 1202.29 406.64 1201.58 404.916C1200.87 403.192 1199.82 401.626 1198.5 400.31C1197.18 398.993 1195.61 397.951 1193.88 397.245C1192.15 396.538 1190.31 396.181 1188.44 396.194C1186.57 396.207 1184.73 396.589 1183.01 397.319C1181.3 398.049 1179.74 399.113 1178.44 400.447L1140.77 439.038C1140.11 439.72 1139.74 440.633 1139.74 441.582C1139.75 442.53 1140.13 443.439 1140.8 444.111V444.111Z" fill="#B4D4DE"/>
<path d="M1190.18 375.075C1179.3 375.075 1170.49 366.259 1170.49 355.383C1170.49 344.507 1179.3 335.691 1190.18 335.691C1201.05 335.691 1209.87 344.507 1209.87 355.383C1209.87 366.259 1201.05 375.075 1190.18 375.075Z" fill="#FFB8B8"/>
<path d="M1256.72 591.363L1251.73 599.833L1216.69 584.633L1224.04 572.13L1256.72 591.363Z" fill="#FFB8B8"/>
<path d="M1255.22 587.574L1245.4 604.256L1245.4 604.257C1244.58 605.653 1244.04 607.198 1243.82 608.802C1243.59 610.406 1243.69 612.039 1244.09 613.608C1244.5 615.176 1245.21 616.649 1246.19 617.942C1247.16 619.236 1248.38 620.324 1249.78 621.146L1250.12 621.349L1266.2 594.036L1255.22 587.574Z" fill="#2F2E41"/>
<path d="M1198.95 621.88H1189.12L1184.44 583.966L1198.95 583.966L1198.95 621.88Z" fill="#FFB8B8"/>
<path d="M1201.45 618.671L1182.09 618.67H1182.09C1180.47 618.67 1178.87 618.989 1177.37 619.609C1175.88 620.229 1174.52 621.137 1173.37 622.283C1172.22 623.428 1171.32 624.788 1170.7 626.285C1170.08 627.782 1169.76 629.386 1169.76 631.006V631.407L1201.45 631.408L1201.45 618.671Z" fill="#2F2E41"/>
<path d="M1238.46 598.909C1239.03 598.91 1239.59 598.777 1240.09 598.522C1240.6 598.266 1241.03 597.896 1241.37 597.44L1250.85 584.565C1251.14 584.172 1251.34 583.724 1251.46 583.25C1251.57 582.775 1251.58 582.282 1251.5 581.802C1251.41 581.322 1251.23 580.863 1250.97 580.455C1250.7 580.046 1250.35 579.696 1249.95 579.425L1207.76 551.25L1233.22 484.323L1178.78 488.814L1176.95 546.328C1176.78 551.566 1178.03 556.752 1180.58 561.331C1183.13 565.91 1186.88 569.71 1191.42 572.324L1236.66 598.425C1237.21 598.742 1237.83 598.909 1238.46 598.909V598.909Z" fill="#2F2E41"/>
<path d="M1198.65 614.183C1199.58 614.181 1200.48 613.818 1201.15 613.169C1201.82 612.52 1202.21 611.636 1202.25 610.703L1204.24 554.674L1179.54 553.373L1181.51 609.804C1181.54 610.698 1181.9 611.55 1182.52 612.192C1183.14 612.834 1183.98 613.222 1184.88 613.278L1198.4 614.175C1198.49 614.18 1198.57 614.183 1198.65 614.183Z" fill="#2F2E41"/>
<path d="M1172.49 499.94C1178.77 499.94 1200.72 492.872 1208.34 490.352C1209.48 491.264 1215.74 495.947 1223.06 495.091C1227.57 494.562 1231.54 492.009 1234.86 487.502C1242.19 477.549 1233.13 434.865 1224.24 400.81C1222.46 393.927 1218.08 388.002 1212.02 384.282C1205.96 380.562 1198.69 379.336 1191.75 380.862V380.862C1186.72 381.974 1182.09 384.466 1178.4 388.061C1174.7 391.655 1172.08 396.209 1170.83 401.21C1169.16 408.023 1170.6 416.038 1171.65 421.89C1172.14 424.642 1172.53 426.815 1172.4 427.883C1171.89 432.011 1169.02 496.748 1170.86 499.513C1171.06 499.807 1171.63 499.94 1172.49 499.94Z" fill="#B4D4DE"/>
<path d="M1195.48 500.055C1194.47 499.303 1193.63 498.339 1193.04 497.23C1192.44 496.122 1192.09 494.896 1192.02 493.638C1191.95 492.381 1192.15 491.124 1192.62 489.954C1193.09 488.785 1193.8 487.732 1194.72 486.869L1194.33 408.422L1212.81 411.498L1207.38 487.643C1208.73 489.28 1209.43 491.355 1209.35 493.473C1209.26 495.592 1208.41 497.607 1206.94 499.137C1205.47 500.667 1203.5 501.605 1201.38 501.774C1199.27 501.944 1197.17 501.332 1195.48 500.055V500.055Z" fill="#FFB8B8"/>
<path d="M1191.2 458.801H1211.1C1212.05 458.799 1212.97 458.422 1213.64 457.753C1214.32 457.084 1214.7 456.177 1214.71 455.226L1215.2 401.274C1215.22 399.408 1214.86 397.558 1214.16 395.829C1213.46 394.101 1212.42 392.529 1211.11 391.205C1209.79 389.881 1208.23 388.83 1206.51 388.114C1204.78 387.397 1202.94 387.03 1201.07 387.032C1199.2 387.034 1197.36 387.406 1195.64 388.127C1193.92 388.847 1192.36 389.902 1191.04 391.229C1189.73 392.557 1188.7 394.131 1188 395.861C1187.3 397.591 1186.95 399.443 1186.98 401.308L1187.6 455.235C1187.61 456.183 1188 457.089 1188.67 457.756C1189.34 458.423 1190.25 458.798 1191.2 458.801V458.801Z" fill="#B4D4DE"/>
<path d="M1195.19 374.993C1204.21 375.01 1212.71 367.883 1214.28 359.003C1214.84 355.515 1214.58 351.944 1213.54 348.569C1212.41 344.727 1210.46 341.173 1207.84 338.145C1205.21 335.118 1201.97 332.689 1198.33 331.021C1194.69 329.353 1190.73 328.485 1186.72 328.476C1182.72 328.467 1178.76 329.317 1175.11 330.968C1172.69 332.06 1170.32 333.627 1169.21 336.033C1168.11 338.439 1168.8 341.802 1171.22 342.885C1172.8 343.592 1174.78 343.245 1176.18 344.261C1178.19 345.719 1177.67 348.824 1176.77 351.141C1175.88 353.458 1174.86 356.261 1176.37 358.238C1177.77 360.08 1180.57 360.023 1182.78 359.33C1184.99 358.636 1187.17 357.475 1189.48 357.712C1192.84 358.056 1195.25 361.398 1195.7 364.746C1196.14 368.093 1195.09 371.439 1194.05 374.653L1195.19 374.993Z" fill="#2F2E41"/>
<path d="M1121.11 475.862C1108.32 472.97 1093.83 482.976 1093.38 496.41C1093.25 500.188 1094.36 504.156 1097.27 506.726C1099.67 508.848 1103.24 509.918 1106.34 508.881C1112.31 506.885 1112.63 498.565 1109.43 494.121C1105.09 488.104 1096.5 487.077 1089.68 487.792C1081.35 488.667 1073.42 492.322 1066.78 497.331C1053.47 507.36 1044.99 522.73 1038.13 537.579C1031.11 552.813 1026.01 568.858 1022.93 585.348C1022.55 587.419 1022.19 589.496 1021.87 591.578C1021.78 591.883 1021.57 592.14 1021.29 592.293C1021.01 592.447 1020.69 592.484 1020.38 592.397C1020.08 592.301 1019.82 592.093 1019.67 591.815C1019.52 591.537 1019.48 591.212 1019.56 590.906C1022.37 572.911 1027.55 555.37 1034.98 538.741C1042.16 522.648 1051.22 505.954 1065.62 495.214C1072.8 489.86 1081.28 486.135 1090.25 485.338C1097.81 484.667 1106.75 486.265 1111.45 492.835C1115.16 498.018 1114.78 506.632 1109.05 510.242C1105.89 512.227 1101.89 511.995 1098.61 510.452C1096.88 509.594 1095.35 508.369 1094.13 506.861C1092.91 505.353 1092.04 503.599 1091.57 501.72C1089.53 494.259 1092.63 486.189 1097.93 480.857C1102.9 475.838 1109.66 472.995 1116.73 472.95C1118.43 472.968 1120.13 473.17 1121.78 473.552C1123.29 473.894 1122.62 476.203 1121.11 475.862V475.862Z" fill="#CCCCCC"/>
<path d="M1059.42 623.598L1067.37 610.025L1057.57 604.284L1049.62 617.856V617.857C1048.86 619.156 1048.64 620.705 1049.02 622.163C1049.41 623.62 1050.35 624.867 1051.65 625.628C1052.95 626.39 1054.5 626.603 1055.96 626.223C1057.41 625.842 1058.66 624.898 1059.42 623.598Z" fill="#B4D4DE"/>
<path d="M1085.7 595.387C1081.84 595.387 1078.71 592.257 1078.71 588.396C1078.71 584.535 1081.84 581.406 1085.7 581.406C1089.57 581.406 1092.7 584.535 1092.7 588.396C1092.7 592.257 1089.57 595.387 1085.7 595.387Z" fill="#B4D4DE"/>
<path d="M1028.66 623.598L1036.61 610.025L1026.81 604.284L1018.86 617.856C1018.1 619.156 1017.89 620.704 1018.27 622.16C1018.65 623.617 1019.6 624.862 1020.9 625.623C1022.19 626.384 1023.74 626.598 1025.2 626.218C1026.66 625.839 1027.9 624.896 1028.66 623.598V623.598Z" fill="#B4D4DE"/>
<path d="M1084.38 602.479C1084.37 598.541 1082.81 594.765 1080.02 591.98C1077.24 589.195 1073.46 587.629 1069.52 587.624H1022.5C1020.83 587.626 1019.24 588.288 1018.06 589.465C1016.88 590.643 1016.22 592.238 1016.22 593.903V599.254C1016.22 604.048 1018.13 608.643 1021.52 612.033C1024.91 615.422 1029.51 617.329 1034.3 617.334H1069.52C1073.46 617.33 1077.24 615.763 1080.02 612.978C1082.81 610.193 1084.37 606.418 1084.38 602.479V602.479Z" fill="#3F3D56"/>
<path d="M1073.53 625.348V609.619H1062.17V625.348C1062.17 626.854 1062.77 628.299 1063.84 629.364C1064.9 630.429 1066.35 631.028 1067.85 631.028C1069.36 631.028 1070.8 630.429 1071.87 629.364C1072.93 628.299 1073.53 626.854 1073.53 625.348Z" fill="#3F3D56"/>
<path d="M1040.57 625.348V609.619H1029.21V625.348C1029.21 626.094 1029.36 626.834 1029.64 627.524C1029.93 628.213 1030.34 628.84 1030.87 629.369C1031.4 629.897 1032.03 630.316 1032.71 630.602C1033.4 630.887 1034.14 631.035 1034.89 631.035C1035.64 631.035 1036.38 630.887 1037.07 630.602C1037.75 630.316 1038.38 629.897 1038.91 629.369C1039.44 628.84 1039.85 628.213 1040.14 627.524C1040.42 626.834 1040.57 626.094 1040.57 625.348V625.348Z" fill="#3F3D56"/>
<path d="M994.352 563.118C993.19 561.677 991.503 560.755 989.662 560.556C987.821 560.357 985.977 560.896 984.533 562.056C983.089 563.215 982.165 564.9 981.962 566.741C981.759 568.581 982.295 570.427 983.451 571.873L994.942 586.18L1005.84 577.425L994.352 563.118Z" fill="#B4D4DE"/>
<path d="M1022.03 591.302L1012.83 579.84C1010.59 577.06 1007.34 575.281 1003.79 574.893C1000.24 574.506 996.684 575.542 993.898 577.774L991.022 580.084C987.707 582.753 985.586 586.627 985.124 590.858C984.662 595.089 985.897 599.33 988.558 602.652L996.143 612.095C996.981 613.136 998.198 613.802 999.526 613.947C1000.85 614.092 1002.19 613.704 1003.23 612.868L1021.26 598.389C1022.3 597.551 1022.97 596.334 1023.11 595.005C1023.26 593.677 1022.87 592.345 1022.03 591.302V591.302Z" fill="#3F3D56"/>
<path d="M992.984 561.415C992.589 560.923 992.101 560.513 991.547 560.21C990.994 559.906 990.386 559.715 989.759 559.646C989.131 559.578 988.496 559.634 987.891 559.81C987.285 559.987 986.72 560.282 986.227 560.677C985.735 561.072 985.326 561.56 985.023 562.114C984.719 562.667 984.528 563.275 984.459 563.902C984.391 564.53 984.447 565.165 984.623 565.77C984.8 566.376 985.095 566.941 985.49 567.434L998.349 583.444L1005.84 577.425L992.984 561.415Z" fill="#3F3D56"/>
<path d="M1011.4 588.177L991.647 604.045C990.207 605.208 989.287 606.894 989.089 608.734C988.89 610.574 989.429 612.418 990.588 613.861C991.747 615.304 993.431 616.229 995.271 616.432C997.111 616.635 998.956 616.101 1000.4 614.946L1020.16 599.077L1011.4 588.177Z" fill="#3F3D56"/>
<path d="M989.3 614.895C988.03 613.314 987.712 611.459 988.591 610.754C989.47 610.048 991.212 610.758 992.482 612.34C993.752 613.921 994.07 615.776 993.191 616.481C992.312 617.187 990.57 616.477 989.3 614.895Z" fill="#B4D4DE"/>
<path d="M1094.76 273.502C1094.76 192.453 1029.06 0.127319 948.011 0.127319C866.962 0.127319 801.259 192.453 801.259 273.502C801.259 312.423 816.721 349.75 844.242 377.271C871.763 404.793 909.09 420.254 948.011 420.254C986.933 420.254 1024.26 404.793 1051.78 377.271C1079.3 349.75 1094.76 312.423 1094.76 273.502V273.502Z" fill="#B4D4DE"/>
<path d="M948 632C948.265 632 948.52 631.872 948.707 631.645C948.895 631.418 949 631.11 949 630.789V123.211C949 122.89 948.895 122.582 948.707 122.355C948.52 122.128 948.265 122 948 122C947.735 122 947.48 122.128 947.293 122.355C947.105 122.582 947 122.89 947 123.211V630.789C947 631.11 947.105 631.418 947.293 631.645C947.48 631.872 947.735 632 948 632Z" fill="#3F3D56"/>
<path d="M948.012 221.051C948.17 221.051 948.327 221.02 948.474 220.959C948.62 220.899 948.753 220.81 948.865 220.698L1006.95 162.614C1007.06 162.502 1007.15 162.369 1007.21 162.222C1007.28 162.075 1007.31 161.918 1007.31 161.759C1007.31 161.6 1007.28 161.442 1007.22 161.295C1007.16 161.148 1007.07 161.014 1006.95 160.902C1006.84 160.789 1006.71 160.7 1006.56 160.639C1006.41 160.579 1006.26 160.548 1006.1 160.548C1005.94 160.549 1005.78 160.581 1005.63 160.642C1005.49 160.704 1005.35 160.794 1005.24 160.907L947.158 218.991C946.99 219.16 946.875 219.375 946.828 219.609C946.782 219.843 946.806 220.086 946.897 220.306C946.988 220.527 947.143 220.715 947.341 220.848C947.54 220.98 947.773 221.051 948.012 221.051V221.051Z" fill="#3F3D56"/>
<path d="M948.011 321.606C948.25 321.606 948.483 321.535 948.681 321.403C948.88 321.27 949.035 321.082 949.126 320.861C949.217 320.641 949.241 320.398 949.195 320.164C949.148 319.93 949.033 319.715 948.864 319.546L851.592 222.273C851.48 222.16 851.347 222.07 851.2 222.008C851.054 221.947 850.896 221.915 850.737 221.914C850.578 221.914 850.42 221.944 850.273 222.005C850.126 222.066 849.992 222.155 849.88 222.267C849.767 222.38 849.678 222.514 849.617 222.661C849.557 222.808 849.526 222.965 849.526 223.124C849.527 223.284 849.559 223.441 849.62 223.588C849.682 223.734 849.772 223.868 849.885 223.979L947.158 321.253C947.27 321.365 947.403 321.454 947.549 321.514C947.696 321.575 947.853 321.606 948.011 321.606V321.606Z" fill="#3F3D56"/>
<path d="M618.962 626.124C619.985 626.123 620.989 625.86 621.874 625.361C622.759 624.863 623.492 624.147 624.001 623.285C624.509 622.424 624.773 621.448 624.768 620.455C624.763 619.463 624.487 618.49 623.97 617.633V617.633L615.831 604.154L605.794 609.856L613.934 623.335C614.448 624.185 615.182 624.89 616.064 625.379C616.947 625.869 617.945 626.125 618.962 626.124Z" fill="#B4D4DE"/>
<path d="M586.82 595.167C582.96 595.167 579.83 591.814 579.83 587.677C579.83 583.541 582.96 580.188 586.82 580.188C590.681 580.188 593.811 583.541 593.811 587.677C593.811 591.814 590.681 595.167 586.82 595.167Z" fill="#B4D4DE"/>
<path d="M649.918 626.124C650.942 626.123 651.946 625.86 652.831 625.361C653.716 624.863 654.45 624.147 654.958 623.285C655.466 622.424 655.73 621.448 655.725 620.455C655.72 619.463 655.444 618.489 654.927 617.633L646.787 604.154L636.751 609.856L644.891 623.335C645.405 624.185 646.139 624.89 647.021 625.379C647.904 625.869 648.902 626.125 649.918 626.124V626.124Z" fill="#B4D4DE"/>
<path d="M603.055 617.137H639.18C644.096 617.131 648.809 615.209 652.285 611.791C655.762 608.373 657.717 603.739 657.723 598.905V593.509C657.721 591.831 657.042 590.222 655.834 589.035C654.627 587.848 652.991 587.18 651.283 587.178H603.055C599.014 587.178 595.139 588.756 592.282 591.565C589.424 594.374 587.819 598.185 587.819 602.157C587.819 606.13 589.424 609.94 592.282 612.749C595.139 615.558 599.014 617.137 603.055 617.137V617.137Z" fill="#3F3D56"/>
<path d="M604.795 631.117C606.384 631.116 607.907 630.501 609.03 629.408C610.153 628.315 610.785 626.834 610.787 625.289V609.148H598.804V625.289C598.805 626.834 599.437 628.315 600.561 629.408C601.684 630.501 603.207 631.116 604.795 631.117V631.117Z" fill="#3F3D56"/>
<path d="M638.749 631.117C640.337 631.116 641.86 630.501 642.983 629.408C644.107 628.315 644.738 626.834 644.74 625.289V609.148H632.757V625.289C632.759 626.834 633.39 628.315 634.514 629.408C635.637 630.501 637.16 631.116 638.749 631.117V631.117Z" fill="#3F3D56"/>
<path d="M667.709 576.322L679.086 585.181L691.079 570.705C692.284 569.241 692.842 567.374 692.63 565.513C692.418 563.652 691.453 561.948 689.947 560.775C688.441 559.602 686.517 559.057 684.596 559.257C682.675 559.458 680.915 560.389 679.702 561.846L667.709 576.322Z" fill="#B4D4DE"/>
<path d="M652.655 598.241L671.079 613.01C672.145 613.862 673.506 614.258 674.863 614.11C676.221 613.962 677.464 613.283 678.321 612.221L686.071 602.589C688.791 599.202 690.053 594.876 689.581 590.561C689.109 586.245 686.941 582.293 683.554 579.571L680.614 577.215C677.768 574.939 674.133 573.882 670.507 574.277C666.88 574.672 663.559 576.487 661.272 579.323L651.865 591.013C651.011 592.077 650.614 593.436 650.763 594.791C650.911 596.146 651.591 597.387 652.655 598.241V598.241Z" fill="#3F3D56"/>
<path d="M667.709 576.13L675.398 582.185L688.592 566.08C689.411 565.08 689.791 563.802 689.649 562.528C689.507 561.253 688.855 560.086 687.835 559.283C686.815 558.48 685.512 558.107 684.212 558.247C682.912 558.386 681.721 559.026 680.902 560.025L667.709 576.13Z" fill="#3F3D56"/>
<path d="M653.728 598.333L673.387 614.573C674.826 615.755 676.662 616.303 678.493 616.095C680.324 615.887 682 614.941 683.153 613.464C684.306 611.987 684.843 610.1 684.645 608.216C684.448 606.333 683.532 604.607 682.099 603.417L662.44 587.178L653.728 598.333Z" fill="#3F3D56"/>
<path d="M681.279 615.404C680.562 614.828 680.821 613.315 681.858 612.025C682.894 610.734 684.316 610.155 685.033 610.731C685.75 611.306 685.491 612.819 684.454 614.11C683.418 615.401 681.996 615.98 681.279 615.404Z" fill="#B4D4DE"/>
<path d="M738.611 621.63C738.611 623.882 739.486 626.041 741.045 627.632C742.604 629.224 744.718 630.119 746.922 630.119C751.513 630.119 751.672 625.874 748.11 621.63C751.672 619.205 751.513 613.142 746.922 613.142C744.718 613.142 742.604 614.036 741.045 615.628C739.486 617.22 738.611 619.379 738.611 621.63V621.63Z" fill="#CCCCCC"/>
<path d="M713.645 621.63C713.645 623.882 712.769 626.041 711.211 627.632C709.652 629.224 707.538 630.119 705.333 630.119C700.743 630.119 700.584 625.874 704.146 621.63C700.584 619.205 700.743 613.142 705.333 613.142C707.538 613.142 709.652 614.036 711.211 615.628C712.769 617.22 713.645 619.379 713.645 621.63V621.63Z" fill="#CCCCCC"/>
<path d="M708.652 617.136H743.604V626.124H708.652V617.136Z" fill="#CCCCCC"/>
<path d="M381.672 432.87C373.509 432.87 366.892 426.253 366.892 418.09C366.892 409.928 373.509 403.311 381.672 403.311C389.834 403.311 396.451 409.928 396.451 418.09C396.451 426.253 389.834 432.87 381.672 432.87Z" fill="#A0616A"/>
<path d="M382.627 500.945C382.912 500.057 383.006 499.119 382.903 498.192C382.801 497.265 382.503 496.37 382.03 495.566C381.557 494.762 380.92 494.067 380.16 493.526C379.4 492.986 378.534 492.612 377.619 492.43C377.329 492.373 377.036 492.337 376.741 492.321L361.173 467.335L375.394 453.816C375.937 453.299 376.373 452.68 376.675 451.994C376.978 451.308 377.142 450.569 377.158 449.82C377.173 449.07 377.04 448.325 376.766 447.627C376.492 446.929 376.082 446.293 375.561 445.754C375.039 445.216 374.416 444.786 373.728 444.489C373.039 444.193 372.299 444.035 371.549 444.027C370.8 444.018 370.056 444.158 369.36 444.438C368.665 444.719 368.032 445.134 367.498 445.66L347.864 465.021L347.824 465.069C347.217 465.993 346.924 467.089 346.988 468.192C347.053 469.296 347.471 470.35 348.182 471.197L369.995 496.996C369.93 497.203 369.876 497.413 369.833 497.625C369.65 498.54 369.663 499.483 369.871 500.393C370.078 501.302 370.475 502.157 371.036 502.903C371.597 503.648 372.31 504.266 373.126 504.717C373.943 505.167 374.845 505.441 375.775 505.518C375.963 505.535 376.15 505.543 376.336 505.543C377.735 505.537 379.097 505.089 380.227 504.264C381.357 503.438 382.197 502.277 382.627 500.945V500.945Z" fill="#A0616A"/>
<path d="M406.013 623.783H413.391L416.9 595.328L406.012 595.329L406.013 623.783Z" fill="#A0616A"/>
<path d="M403.832 631.236L428.221 631.235V630.633C428.221 629.378 427.973 628.135 427.493 626.975C427.013 625.815 426.308 624.761 425.421 623.874C424.533 622.986 423.479 622.282 422.319 621.801C421.16 621.321 419.916 621.074 418.661 621.074L403.831 621.074L403.832 631.236Z" fill="#2F2E41"/>
<path d="M332.688 613.583L339.027 617.358L356.601 594.704L347.245 589.134L332.688 613.583Z" fill="#A0616A"/>
<path d="M347.956 631.347L348.264 630.83C349.561 628.651 349.939 626.047 349.316 623.589C348.693 621.132 347.119 619.022 344.941 617.725L332.198 610.138L327 618.87L347.956 631.347Z" fill="#2F2E41"/>
<path d="M417.831 611.252C422.773 553.06 425.713 499 407.647 476.947L407.508 476.776L377.104 488.937L377.054 489.046C376.951 489.269 366.84 511.511 369.199 526.471L361.699 560.968L337.247 601.911C337.05 602.241 336.926 602.609 336.882 602.99C336.838 603.371 336.875 603.758 336.992 604.124C337.109 604.489 337.302 604.826 337.558 605.111C337.815 605.397 338.13 605.625 338.481 605.779L349.107 610.455C349.707 610.715 350.381 610.752 351.005 610.557C351.629 610.361 352.162 609.948 352.506 609.392L379.106 566.018L394.13 532.75C394.212 532.57 394.35 532.421 394.525 532.327C394.699 532.233 394.9 532.199 395.096 532.231C395.291 532.262 395.471 532.357 395.608 532.501C395.744 532.645 395.829 532.829 395.85 533.026L404.178 611.311C404.248 611.977 404.562 612.592 405.059 613.04C405.557 613.487 406.202 613.734 406.871 613.733H415.132C415.81 613.729 416.462 613.473 416.961 613.014C417.46 612.555 417.77 611.927 417.831 611.252Z" fill="#2F2E41"/>
<path d="M407.545 477.408L407.689 477.338L407.712 477.179C408.848 469.23 407.503 460.398 403.716 450.928C401.85 446.293 398.38 442.483 393.94 440.192C389.5 437.901 384.384 437.281 379.525 438.446V438.446C376.726 439.136 374.101 440.399 371.816 442.156C369.531 443.913 367.636 446.126 366.25 448.654C364.883 451.156 364.05 453.915 363.804 456.755C363.558 459.596 363.905 462.457 364.823 465.157C369.597 479.117 375.79 492.179 375.852 492.31L375.982 492.582L407.545 477.408Z" fill="#B4D4DE"/>
<path d="M429.421 510.375C429.631 508.769 429.256 507.142 428.367 505.789C427.478 504.436 426.132 503.447 424.575 503.002L396.145 448.42C395.771 447.807 395.28 447.274 394.699 446.851C394.119 446.429 393.461 446.125 392.763 445.958C392.064 445.79 391.34 445.763 390.631 445.876C389.922 445.99 389.243 446.243 388.632 446.62C388.021 446.997 387.491 447.491 387.072 448.074C386.652 448.657 386.352 449.317 386.189 450.016C386.026 450.715 386.002 451.439 386.12 452.147C386.238 452.856 386.494 453.534 386.875 454.142L415.977 508.345C415.915 508.675 415.879 509.008 415.869 509.344C415.844 510.26 416.005 511.172 416.341 512.025C416.678 512.878 417.183 513.654 417.827 514.307C418.471 514.959 419.241 515.475 420.089 515.823C420.937 516.171 421.847 516.344 422.764 516.331V516.331C423.769 516.316 424.759 516.08 425.661 515.637C426.564 515.195 427.358 514.559 427.986 513.774C428.772 512.797 429.269 511.619 429.421 510.375V510.375Z" fill="#A0616A"/>
<path d="M399.591 409.742H376.123V399.512C381.274 397.466 386.315 395.725 389.362 399.512C392.075 399.512 394.677 400.59 396.595 402.508C398.514 404.427 399.591 407.029 399.591 409.742V409.742Z" fill="#2F2E41"/>
<path d="M374.824 397.707C360.794 397.707 356.867 415.292 356.867 425.213C356.867 430.746 359.37 432.725 363.302 433.394L364.69 425.989L367.942 433.713C369.047 433.719 370.207 433.697 371.41 433.675L372.513 431.404L374.972 433.634C384.82 433.649 392.78 435.084 392.78 425.213C392.78 415.292 389.336 397.707 374.824 397.707Z" fill="#2F2E41"/>
<path d="M1310.24 632.476H1.76107C1.29401 632.476 0.846071 632.37 0.515805 632.183C0.18554 631.995 0 631.741 0 631.476C0 631.211 0.18554 630.956 0.515805 630.769C0.846071 630.581 1.29401 630.476 1.76107 630.476H1310.24C1310.71 630.476 1311.15 630.581 1311.48 630.769C1311.81 630.956 1312 631.211 1312 631.476C1312 631.741 1311.81 631.995 1311.48 632.183C1311.15 632.37 1310.71 632.476 1310.24 632.476Z" fill="#3F3D56"/>
<path d="M248.561 552.409C248.904 552.409 249.244 552.341 249.562 552.209C249.879 552.078 250.168 551.885 250.411 551.642C250.654 551.399 250.846 551.111 250.978 550.793C251.109 550.476 251.177 550.136 251.177 549.792C251.177 549.448 251.109 549.108 250.978 548.791C250.846 548.473 250.654 548.185 250.411 547.942C250.168 547.699 249.879 547.506 249.562 547.375C249.244 547.243 248.904 547.175 248.561 547.175H223.703V536.709H248.561C249.255 536.709 249.92 536.433 250.411 535.943C250.901 535.452 251.177 534.786 251.177 534.092C251.177 533.399 250.901 532.733 250.411 532.242C249.92 531.752 249.255 531.476 248.561 531.476H36.6166C35.9226 531.476 35.2571 531.752 34.7664 532.242C34.2757 532.733 34 533.399 34 534.092C34 534.786 34.2757 535.452 34.7664 535.943C35.2571 536.433 35.9226 536.709 36.6166 536.709H61.4742V547.175H36.6166C35.9226 547.175 35.2571 547.451 34.7664 547.942C34.2757 548.432 34 549.098 34 549.792C34 550.486 34.2757 551.152 34.7664 551.642C35.2571 552.133 35.9226 552.409 36.6166 552.409H61.4742V562.875H36.6166C35.9226 562.875 35.2571 563.151 34.7664 563.641C34.2757 564.132 34 564.798 34 565.492C34 566.186 34.2757 566.851 34.7664 567.342C35.2571 567.832 35.9226 568.108 36.6166 568.108H61.4742V578.575H39.2332C37.8465 578.576 36.5173 579.129 35.5375 580.11C34.5576 581.091 34.0073 582.421 34.0073 583.808C34.0073 585.194 34.5576 586.524 35.5375 587.506C36.5173 588.487 37.8465 589.039 39.2332 589.041H60.4061C60.2517 589.46 60.1705 589.903 60.166 590.349V626.981C60.166 628.022 60.5795 629.021 61.3156 629.757C62.0516 630.493 63.0499 630.906 64.0908 630.906C65.1318 630.906 66.1301 630.493 66.8661 629.757C67.6022 629.021 68.0157 628.022 68.0157 626.981V590.349C68.0112 589.903 67.9299 589.46 67.7755 589.041H217.402C217.247 589.46 217.166 589.903 217.161 590.349V626.981C217.161 628.022 217.575 629.021 218.311 629.757C219.047 630.493 220.045 630.906 221.086 630.906C222.127 630.906 223.126 630.493 223.862 629.757C224.598 629.021 225.011 628.022 225.011 626.981V590.349C225.007 589.903 224.925 589.46 224.771 589.041H245.944C246.632 589.042 247.313 588.907 247.949 588.645C248.585 588.382 249.162 587.997 249.649 587.511C250.136 587.025 250.522 586.447 250.785 585.812C251.049 585.177 251.184 584.496 251.184 583.808C251.184 583.12 251.049 582.439 250.785 581.803C250.522 581.168 250.136 580.591 249.649 580.105C249.162 579.619 248.585 579.233 247.949 578.971C247.313 578.708 246.632 578.574 245.944 578.575H223.703V568.108H248.561C248.905 568.109 249.245 568.042 249.563 567.91C249.882 567.779 250.171 567.587 250.414 567.344C250.658 567.1 250.851 566.812 250.983 566.494C251.114 566.176 251.182 565.836 251.182 565.492C251.182 565.147 251.114 564.807 250.983 564.489C250.851 564.171 250.658 563.883 250.414 563.639C250.171 563.396 249.882 563.204 249.563 563.073C249.245 562.941 248.905 562.874 248.561 562.875H223.703V552.409H248.561ZM66.7074 536.709H218.47V547.175H66.7074V536.709ZM218.47 578.575H66.7074V568.108H218.47V578.575ZM218.47 562.875H66.7074V552.409H218.47V562.875Z" fill="#3F3D56"/>
</svg>
