<svg fill="none" height="633" width="1312" xmlns="http://www.w3.org/2000/svg"><path d="M831.827 383.435c0-55.696-45.18-187.858-100.914-187.858C675.18 195.577 630 327.739 630 383.435A100.912 100.912 0 0 0 730.913 484.28a100.914 100.914 0 0 0 100.914-100.845z" fill="#e6e6e6"/><g fill="#3f3d56"><path d="M731 632c.131 0 .261-.022.383-.064.121-.042.231-.103.324-.181s.166-.17.217-.272a.728.728 0 0 0 .076-.321V279.835a.78.78 0 0 0-.294-.591c-.188-.156-.441-.244-.706-.244s-.518.088-.706.244a.78.78 0 0 0-.294.591v351.327c0 .11.026.219.076.321.051.102.124.194.217.272s.203.139.324.181c.122.042.252.064.383.064z"/><path d="M730.914 347.391a.819.819 0 0 0 .586-.243l39.942-39.914a.831.831 0 0 0-.001-1.173.83.83 0 0 0-1.173.001l-39.941 39.914a.83.83 0 0 0 .126 1.276.83.83 0 0 0 .461.139zM730.914 416.491a.833.833 0 0 0 .766-.512.827.827 0 0 0-.179-.904l-66.889-66.844a.842.842 0 0 0-.587-.243.819.819 0 0 0-.587.243.812.812 0 0 0-.179.269.82.82 0 0 0-.001.635c.042.1.103.192.18.269l66.889 66.844a.842.842 0 0 0 .587.243z"/></g><path d="M1272 329.926c0-68.441-55.38-230.849-123.69-230.849s-123.69 162.408-123.69 230.849c0 32.866 13.04 64.387 36.23 87.627 23.2 23.24 54.66 36.296 87.46 36.296 32.81 0 64.27-13.056 87.46-36.296 23.2-23.24 36.23-54.761 36.23-87.627z" fill="#f2f2f2"/><path d="M1148.92 630.029c.32 0 .62-.107.85-.298s.35-.449.35-.719V202.665c0-.27-.12-.529-.35-.719-.23-.191-.53-.298-.85-.298s-.63.107-.86.298a.959.959 0 0 0-.35.719v426.347c0 .27.13.528.35.719.23.191.54.298.86.298z" fill="#3f3d56"/><path d="M1148.72 284.91c.13.001.26-.026.39-.076.12-.051.23-.126.33-.22l48.66-48.664a1.004 1.004 0 0 0-.01-1.425.982.982 0 0 0-.71-.296c-.26-.001-.52.104-.71.291l-48.66 48.665c-.15.141-.24.321-.28.517s-.02.4.06.584c.07.185.2.343.37.454.16.111.36.17.56.17zM1149.1 370.587c.2 0 .4-.06.57-.173.17-.112.3-.272.37-.458.08-.187.1-.393.06-.591a.977.977 0 0 0-.28-.524l-82.43-82.429a1.022 1.022 0 0 0-1.74.724c0 .27.11.53.3.722l82.43 82.429c.09.095.2.171.33.222.12.052.26.078.39.078z" fill="#3f3d56"/><path d="M1114.67 476.318a8.528 8.528 0 0 1 .27-3.723 8.574 8.574 0 0 1 1.82-3.259 8.585 8.585 0 0 1 6.69-2.88l55.17-55.776 10.89 15.234-57.65 50.036a8.608 8.608 0 0 1-2.73 5.513 8.644 8.644 0 0 1-5.7 2.309 8.682 8.682 0 0 1-5.8-2.062 8.654 8.654 0 0 1-2.96-5.392z" fill="#ffb8b8"/><path d="m1140.8 444.111 14.08 14.065c.67.67 1.58 1.047 2.53 1.051s1.87-.366 2.55-1.031l38.47-37.825a14.052 14.052 0 0 0 3.11-4.586 14.08 14.08 0 0 0 .04-10.869 14.083 14.083 0 0 0-3.08-4.606 14.063 14.063 0 0 0-4.62-3.065 14.13 14.13 0 0 0-10.87.074c-1.71.73-3.27 1.794-4.57 3.128l-37.67 38.591a3.66 3.66 0 0 0-1.03 2.544c.01.948.39 1.857 1.06 2.529z" fill="#b4d4de"/><path d="M1190.18 375.075c-10.88 0-19.69-8.816-19.69-19.692s8.81-19.692 19.69-19.692c10.87 0 19.69 8.816 19.69 19.692s-8.82 19.692-19.69 19.692zM1256.72 591.363l-4.99 8.47-35.04-15.2 7.35-12.503z" fill="#ffb8b8"/><path d="m1255.22 587.574-9.82 16.682v.001a12.273 12.273 0 0 0-1.58 4.545c-.23 1.604-.13 3.237.27 4.806a12.335 12.335 0 0 0 2.1 4.334 12.208 12.208 0 0 0 3.59 3.204l.34.203 16.08-27.313z" fill="#2f2e41"/><path d="M1198.95 621.88h-9.83l-4.68-37.914h14.51z" fill="#ffb8b8"/><path d="m1201.45 618.671-19.36-.001c-1.62 0-3.22.319-4.72.939a12.44 12.44 0 0 0-4 2.674c-1.15 1.145-2.05 2.505-2.67 4.002s-.94 3.101-.94 4.721v.401l31.69.001zM1238.46 598.909a3.617 3.617 0 0 0 2.91-1.469l9.48-12.875c.29-.393.49-.841.61-1.315.11-.475.12-.968.04-1.448-.09-.48-.27-.939-.53-1.347a3.732 3.732 0 0 0-1.02-1.03l-42.19-28.175 25.46-66.927-54.44 4.491-1.83 57.514c-.17 5.238 1.08 10.424 3.63 15.003s6.3 8.379 10.84 10.993l45.24 26.101c.55.317 1.17.484 1.8.484z" fill="#2f2e41"/><path d="M1198.65 614.183a3.61 3.61 0 0 0 3.6-3.48l1.99-56.029-24.7-1.301 1.97 56.431c.03.894.39 1.746 1.01 2.388s1.46 1.03 2.36 1.086l13.52.897c.09.005.17.008.25.008z" fill="#2f2e41"/><path d="M1172.49 499.94c6.28 0 28.23-7.068 35.85-9.588 1.14.912 7.4 5.595 14.72 4.739 4.51-.529 8.48-3.082 11.8-7.589 7.33-9.953-1.73-52.637-10.62-86.692-1.78-6.883-6.16-12.808-12.22-16.528s-13.33-4.946-20.27-3.42a27.707 27.707 0 0 0-13.35 7.199 27.69 27.69 0 0 0-7.57 13.149c-1.67 6.813-.23 14.828.82 20.68.49 2.752.88 4.925.75 5.993-.51 4.128-3.38 68.865-1.54 71.63.2.294.77.427 1.63.427z" fill="#b4d4de"/><path d="M1195.48 500.055a8.53 8.53 0 0 1-2.44-2.825 8.593 8.593 0 0 1-.42-7.276 8.633 8.633 0 0 1 2.1-3.085l-.39-78.447 18.48 3.076-5.43 76.145a8.65 8.65 0 0 1 1.97 5.83c-.09 2.119-.94 4.134-2.41 5.664a8.652 8.652 0 0 1-11.46.918z" fill="#ffb8b8"/><path d="M1191.2 458.801h19.9a3.615 3.615 0 0 0 3.61-3.575l.49-53.952c.02-1.866-.34-3.716-1.04-5.445-.7-1.728-1.74-3.3-3.05-4.624a14.205 14.205 0 0 0-4.6-3.091c-1.73-.717-3.57-1.084-5.44-1.082s-3.71.374-5.43 1.095c-1.72.72-3.28 1.775-4.6 3.102-1.31 1.328-2.34 2.902-3.04 4.632s-1.05 3.582-1.02 5.447l.62 53.927c.01.948.4 1.854 1.07 2.521s1.58 1.042 2.53 1.045z" fill="#b4d4de"/><path d="M1195.19 374.993c9.02.017 17.52-7.11 19.09-15.99.56-3.488.3-7.059-.74-10.434a28.03 28.03 0 0 0-5.7-10.424 28.023 28.023 0 0 0-32.73-7.177c-2.42 1.092-4.79 2.659-5.9 5.065-1.1 2.406-.41 5.769 2.01 6.852 1.58.707 3.56.36 4.96 1.376 2.01 1.458 1.49 4.563.59 6.88-.89 2.317-1.91 5.12-.4 7.097 1.4 1.842 4.2 1.785 6.41 1.092 2.21-.694 4.39-1.855 6.7-1.618 3.36.344 5.77 3.686 6.22 7.034.44 3.347-.61 6.693-1.65 9.907z" fill="#2f2e41"/><path d="M1121.11 475.862c-12.79-2.892-27.28 7.114-27.73 20.548-.13 3.778.98 7.746 3.89 10.316 2.4 2.122 5.97 3.192 9.07 2.155 5.97-1.996 6.29-10.316 3.09-14.76-4.34-6.017-12.93-7.044-19.75-6.329-8.33.875-16.26 4.53-22.9 9.539-13.31 10.029-21.79 25.399-28.65 40.248a203.331 203.331 0 0 0-15.2 47.769c-.38 2.071-.74 4.148-1.06 6.23-.09.305-.3.562-.58.715-.28.154-.6.191-.91.104-.3-.096-.56-.304-.71-.582s-.19-.603-.11-.909a205.631 205.631 0 0 1 15.42-52.165c7.18-16.093 16.24-32.787 30.64-43.527 7.18-5.354 15.66-9.079 24.63-9.876 7.56-.671 16.5.927 21.2 7.497 3.71 5.183 3.33 13.797-2.4 17.407-3.16 1.985-7.16 1.753-10.44.21-1.73-.858-3.26-2.083-4.48-3.591s-2.09-3.262-2.56-5.141c-2.04-7.461 1.06-15.531 6.36-20.863a26.693 26.693 0 0 1 18.8-7.907c1.7.018 3.4.22 5.05.602 1.51.342.84 2.651-.67 2.31z" fill="#ccc"/><path d="m1059.42 623.598 7.95-13.573-9.8-5.741-7.95 13.572v.001a5.69 5.69 0 0 0-.6 4.306 5.688 5.688 0 0 0 6.94 4.06 5.687 5.687 0 0 0 3.46-2.625zM1085.7 595.387a6.99 6.99 0 0 1 0-13.981c3.87 0 7 3.129 7 6.99s-3.13 6.991-7 6.991zM1028.66 623.598l7.95-13.573-9.8-5.741-7.95 13.572a5.68 5.68 0 0 0 2.04 7.767c1.29.761 2.84.975 4.3.595a5.652 5.652 0 0 0 3.46-2.62z" fill="#b4d4de"/><path d="M1084.38 602.479a14.878 14.878 0 0 0-14.86-14.855h-47.02a6.288 6.288 0 0 0-6.28 6.279v5.351c0 4.794 1.91 9.389 5.3 12.779a18.11 18.11 0 0 0 12.78 5.301h35.22a14.877 14.877 0 0 0 14.86-14.855z" fill="#3f3d56"/><path d="M1073.53 625.348v-15.729h-11.36v15.729c0 1.506.6 2.951 1.67 4.016a5.669 5.669 0 0 0 4.01 1.664c1.51 0 2.95-.599 4.02-1.664a5.698 5.698 0 0 0 1.66-4.016zM1040.57 625.348v-15.729h-11.36v15.729c0 .746.15 1.486.43 2.176.29.689.7 1.316 1.23 1.845a5.8 5.8 0 0 0 1.84 1.233 5.709 5.709 0 0 0 4.36 0 5.8 5.8 0 0 0 1.84-1.233c.53-.529.94-1.156 1.23-1.845.28-.69.43-1.43.43-2.176z" fill="#3f3d56"/><path d="M994.352 563.118a6.991 6.991 0 0 0-10.901 8.755l11.491 14.307 10.898-8.755z" fill="#b4d4de"/><path d="m1022.03 591.302-9.2-11.462a13.481 13.481 0 0 0-18.932-2.066l-2.876 2.31a16.07 16.07 0 0 0-2.464 22.568l7.585 9.443a5.047 5.047 0 0 0 7.087.773l18.03-14.479a5.028 5.028 0 0 0 1.85-3.384 5.007 5.007 0 0 0-1.08-3.703z" fill="#3f3d56"/><path d="M992.984 561.415a4.802 4.802 0 0 0-7.961.699 4.802 4.802 0 0 0 .467 5.32l12.859 16.01 7.491-6.019zM1011.4 588.177l-19.753 15.868a6.988 6.988 0 0 0-1.059 9.816 6.99 6.99 0 0 0 9.812 1.085l19.76-15.869z" fill="#3f3d56"/><path d="M989.3 614.895c-1.27-1.581-1.588-3.436-.709-4.141.879-.706 2.621.004 3.891 1.586 1.27 1.581 1.588 3.436.709 4.141-.879.706-2.621-.004-3.891-1.586zM1094.76 273.502c0-81.049-65.7-273.375-146.749-273.375S801.259 192.453 801.259 273.502a146.752 146.752 0 0 0 250.521 103.769 146.754 146.754 0 0 0 42.98-103.769z" fill="#b4d4de"/><path d="M948 632a.92.92 0 0 0 .707-.355c.188-.227.293-.535.293-.856V123.211c0-.321-.105-.629-.293-.856-.187-.227-.442-.355-.707-.355s-.52.128-.707.355a1.348 1.348 0 0 0-.293.856v507.578c0 .321.105.629.293.856A.92.92 0 0 0 948 632z" fill="#3f3d56"/><path d="M948.012 221.051a1.205 1.205 0 0 0 .853-.353l58.085-58.084c.11-.112.2-.245.26-.392.07-.147.1-.304.1-.463s-.03-.317-.09-.464-.15-.281-.27-.393a1.139 1.139 0 0 0-.39-.263 1.217 1.217 0 0 0-.93.003c-.14.062-.28.152-.39.265l-58.082 58.084a1.213 1.213 0 0 0 .183 1.857c.199.132.432.203.671.203zM948.011 321.606a1.208 1.208 0 0 0 .853-2.06l-97.272-97.273a1.218 1.218 0 0 0-.855-.359 1.21 1.21 0 0 0-1.12.747c-.06.147-.091.304-.091.463a1.214 1.214 0 0 0 .359.855l97.273 97.274a1.197 1.197 0 0 0 .853.353z" fill="#3f3d56"/><path d="M618.962 626.124a5.943 5.943 0 0 0 2.912-.763 5.727 5.727 0 0 0 2.127-2.076 5.51 5.51 0 0 0 .767-2.83 5.514 5.514 0 0 0-.798-2.822l-8.139-13.479-10.037 5.702 8.14 13.479a5.734 5.734 0 0 0 2.13 2.044 5.96 5.96 0 0 0 2.898.745zM586.82 595.167c-3.86 0-6.99-3.353-6.99-7.49 0-4.136 3.13-7.489 6.99-7.489 3.861 0 6.991 3.353 6.991 7.489 0 4.137-3.13 7.49-6.991 7.49zM649.918 626.124a5.944 5.944 0 0 0 2.913-.763 5.72 5.72 0 0 0 2.127-2.076 5.51 5.51 0 0 0 .767-2.83 5.512 5.512 0 0 0-.798-2.822l-8.14-13.479-10.036 5.702 8.14 13.479a5.734 5.734 0 0 0 2.13 2.044c.883.49 1.881.746 2.897.745z" fill="#b4d4de"/><path d="M603.055 617.137h36.125c4.916-.006 9.629-1.928 13.105-5.346 3.477-3.418 5.432-8.052 5.438-12.886v-5.396a6.282 6.282 0 0 0-1.889-4.474 6.501 6.501 0 0 0-4.551-1.857h-48.228a15.368 15.368 0 0 0-10.773 4.387 14.851 14.851 0 0 0-4.463 10.592 14.85 14.85 0 0 0 4.463 10.592 15.369 15.369 0 0 0 10.773 4.388z" fill="#3f3d56"/><path d="M604.795 631.117c1.589-.001 3.112-.616 4.235-1.709s1.755-2.574 1.757-4.119v-16.141h-11.983v16.141a5.75 5.75 0 0 0 1.757 4.119 6.078 6.078 0 0 0 4.234 1.709zM638.749 631.117a6.078 6.078 0 0 0 4.234-1.709 5.754 5.754 0 0 0 1.757-4.119v-16.141h-11.983v16.141a5.754 5.754 0 0 0 1.757 4.119 6.079 6.079 0 0 0 4.235 1.709z" fill="#3f3d56"/><path d="m667.709 576.322 11.377 8.859 11.993-14.476c1.205-1.464 1.763-3.331 1.551-5.192s-1.177-3.565-2.683-4.738-3.43-1.718-5.351-1.518a7.36 7.36 0 0 0-4.894 2.589z" fill="#b4d4de"/><path d="m652.655 598.241 18.424 14.769a5.165 5.165 0 0 0 7.242-.789l7.75-9.632a16.366 16.366 0 0 0 3.51-12.028 16.385 16.385 0 0 0-6.027-10.99l-2.94-2.356a13.793 13.793 0 0 0-19.342 2.108l-9.407 11.69a5.14 5.14 0 0 0 .79 7.228z" fill="#3f3d56"/><path d="m667.709 576.13 7.689 6.055 13.194-16.105a4.769 4.769 0 0 0 1.057-3.552c-.142-1.275-.794-2.442-1.814-3.245s-2.323-1.176-3.623-1.036a4.961 4.961 0 0 0-3.31 1.778zM653.728 598.333l19.659 16.24c1.439 1.182 3.275 1.73 5.106 1.522s3.507-1.154 4.66-2.631 1.69-3.364 1.492-5.248a7.21 7.21 0 0 0-2.546-4.799l-19.659-16.239z" fill="#3f3d56"/><path d="M681.279 615.404c-.717-.576-.458-2.089.579-3.379 1.036-1.291 2.458-1.87 3.175-1.294.717.575.458 2.088-.579 3.379-1.036 1.291-2.458 1.87-3.175 1.294z" fill="#b4d4de"/><path d="M738.611 621.63c0 2.252.875 4.411 2.434 6.002a8.226 8.226 0 0 0 5.877 2.487c4.591 0 4.75-4.245 1.188-8.489 3.562-2.425 3.403-8.488-1.188-8.488-2.204 0-4.318.894-5.877 2.486s-2.434 3.751-2.434 6.002zM713.645 621.63a8.58 8.58 0 0 1-2.434 6.002 8.226 8.226 0 0 1-5.878 2.487c-4.59 0-4.749-4.245-1.187-8.489-3.562-2.425-3.403-8.488 1.187-8.488 2.205 0 4.319.894 5.878 2.486a8.584 8.584 0 0 1 2.434 6.002z" fill="#ccc"/><path d="M708.652 617.136h34.952v8.988h-34.952z" fill="#ccc"/><path d="M381.672 432.87c-8.163 0-14.78-6.617-14.78-14.78 0-8.162 6.617-14.779 14.78-14.779 8.162 0 14.779 6.617 14.779 14.779 0 8.163-6.617 14.78-14.779 14.78zM382.627 500.945a6.617 6.617 0 0 0-.597-5.379 6.616 6.616 0 0 0-4.411-3.136 6.325 6.325 0 0 0-.878-.109l-15.568-24.986 14.221-13.519a5.673 5.673 0 0 0 1.764-3.996 5.689 5.689 0 0 0-1.597-4.066 5.673 5.673 0 0 0-6.201-1.316 5.695 5.695 0 0 0-1.862 1.222l-19.634 19.361-.04.048a5.147 5.147 0 0 0 .358 6.128l21.813 25.799a6.24 6.24 0 0 0-.162.629 6.622 6.622 0 0 0 3.293 7.092 6.623 6.623 0 0 0 3.21.826 6.636 6.636 0 0 0 6.291-4.598zM406.013 623.783h7.378l3.509-28.455-10.888.001z" fill="#a0616a"/><path d="m403.832 631.236 24.389-.001v-.602a9.568 9.568 0 0 0-2.8-6.759 9.57 9.57 0 0 0-6.76-2.8h-14.83z" fill="#2f2e41"/><path d="m332.688 613.583 6.339 3.775 17.574-22.654-9.356-5.57z" fill="#a0616a"/><path d="m347.956 631.347.308-.517a9.562 9.562 0 0 0-3.323-13.105l-12.743-7.587L327 618.87zM417.831 611.252c4.942-58.192 7.882-112.252-10.184-134.305l-.139-.171-30.404 12.161-.05.109c-.103.223-10.214 22.465-7.855 37.425l-7.5 34.497-24.452 40.943a2.712 2.712 0 0 0 1.234 3.868l10.626 4.676a2.724 2.724 0 0 0 3.399-1.063l26.6-43.374 15.024-33.268a.905.905 0 0 1 1.478-.249.903.903 0 0 1 .242.525l8.328 78.285a2.706 2.706 0 0 0 2.693 2.422h8.261a2.725 2.725 0 0 0 2.699-2.481z" fill="#2f2e41"/><path d="m407.545 477.408.144-.07.023-.159c1.136-7.949-.209-16.781-3.996-26.251a20.84 20.84 0 0 0-24.191-12.482 20.822 20.822 0 0 0-13.275 10.208 20.606 20.606 0 0 0-1.427 16.503c4.774 13.96 10.967 27.022 11.029 27.153l.13.272z" fill="#b4d4de"/><path d="M429.421 510.375a6.756 6.756 0 0 0-4.846-7.373l-28.43-54.582a5.454 5.454 0 0 0-5.514-2.544 5.456 5.456 0 0 0-3.559 2.198 5.433 5.433 0 0 0-.952 4.073c.118.709.374 1.387.755 1.995l29.102 54.203a6.44 6.44 0 0 0-.108.999 6.81 6.81 0 0 0 1.958 4.963 6.82 6.82 0 0 0 4.937 2.024 6.813 6.813 0 0 0 5.222-2.557 6.725 6.725 0 0 0 1.435-3.399z" fill="#a0616a"/><path d="M399.591 409.742h-23.468v-10.23c5.151-2.046 10.192-3.787 13.239 0a10.23 10.23 0 0 1 10.229 10.23z" fill="#2f2e41"/><path d="M374.824 397.707c-14.03 0-17.957 17.585-17.957 27.506 0 5.533 2.503 7.512 6.435 8.181l1.388-7.405 3.252 7.724c1.105.006 2.265-.016 3.468-.038l1.103-2.271 2.459 2.23c9.848.015 17.808 1.45 17.808-8.421 0-9.921-3.444-27.506-17.956-27.506z" fill="#2f2e41"/><path d="M1310.24 632.476H1.761c-.467 0-.915-.106-1.245-.293-.33-.188-.516-.442-.516-.707s.186-.52.516-.707c.33-.188.778-.293 1.245-.293H1310.24c.47 0 .91.105 1.24.293.33.187.52.442.52.707s-.19.519-.52.707c-.33.187-.77.293-1.24.293z" fill="#3f3d56"/><path d="M248.561 552.409a2.61 2.61 0 0 0 1.85-.767 2.619 2.619 0 0 0 0-3.7 2.613 2.613 0 0 0-1.85-.767h-24.858v-10.466h24.858a2.62 2.62 0 0 0 2.616-2.617 2.62 2.62 0 0 0-2.616-2.616H36.617A2.62 2.62 0 0 0 34 534.092a2.619 2.619 0 0 0 2.617 2.617h24.857v10.466H36.617a2.616 2.616 0 0 0 0 5.234h24.857v10.466H36.617A2.62 2.62 0 0 0 34 565.492a2.617 2.617 0 0 0 2.617 2.616h24.857v10.467h-22.24a5.23 5.23 0 0 0-5.227 5.233 5.236 5.236 0 0 0 5.226 5.233h21.173a3.899 3.899 0 0 0-.24 1.308v36.632a3.926 3.926 0 0 0 6.7 2.776 3.926 3.926 0 0 0 1.15-2.776v-36.632a3.9 3.9 0 0 0-.24-1.308h149.626a3.897 3.897 0 0 0-.241 1.308v36.632a3.927 3.927 0 0 0 6.701 2.776 3.926 3.926 0 0 0 1.149-2.776v-36.632a3.896 3.896 0 0 0-.24-1.308h21.173a5.244 5.244 0 0 0 3.705-1.53 5.226 5.226 0 0 0 1.535-3.703 5.228 5.228 0 0 0-3.235-4.837 5.225 5.225 0 0 0-2.005-.396h-22.241v-10.467h24.858c.344.001.684-.066 1.002-.198a2.598 2.598 0 0 0 1.42-1.416 2.63 2.63 0 0 0 0-2.005 2.623 2.623 0 0 0-1.42-1.416 2.591 2.591 0 0 0-1.002-.198h-24.858v-10.466zm-181.854-15.7H218.47v10.466H66.707zm151.763 41.866H66.707v-10.467H218.47zm0-15.7H66.707v-10.466H218.47z" fill="#3f3d56"/></svg>