<svg fill="none" height="633" viewBox="0 0 1312 633" width="1312" xmlns="http://www.w3.org/2000/svg"><path d="m831.827 383.435c0-55.696-45.18-187.858-100.914-187.858-55.733 0-100.913 132.162-100.913 187.858.018 26.752 10.658 52.402 29.581 71.312s44.58 29.533 71.332 29.533c26.753 0 52.41-10.623 71.333-29.533s29.563-44.56 29.581-71.312z" fill="#e6e6e6"/><g fill="#3f3d56"><path d="m731 632c.131 0 .261-.022.383-.064.121-.042.231-.103.324-.181s.166-.17.217-.272c.05-.102.076-.211.076-.321v-351.327c-.001-.221-.107-.434-.294-.591-.188-.156-.441-.244-.706-.244s-.518.088-.706.244c-.187.157-.293.37-.294.591v351.327c0 .11.026.219.076.321.051.102.124.194.217.272s.203.139.324.181c.122.042.252.064.383.064z"/><path d="m730.914 347.391c.109 0 .217-.021.317-.063.101-.041.192-.102.269-.18l39.942-39.914c.155-.155.243-.367.243-.586-.001-.22-.088-.431-.244-.587-.155-.155-.366-.243-.586-.243s-.431.088-.587.244l-39.941 39.914c-.116.116-.195.264-.227.424-.032.161-.016.328.047.48.063.151.169.281.306.372.136.091.297.139.461.139z"/><path d="m730.914 416.491c.164 0 .324-.049.461-.14.136-.091.243-.22.305-.372.063-.151.08-.318.048-.479s-.111-.309-.227-.425l-66.889-66.844c-.077-.077-.169-.138-.269-.18-.101-.042-.209-.063-.318-.063s-.217.021-.317.063c-.101.042-.192.103-.27.18-.077.077-.138.168-.179.269-.042.1-.064.208-.064.317s.022.217.063.318c.042.1.103.192.18.269l66.889 66.844c.077.077.169.138.269.18.101.042.209.063.318.063z"/></g><path d="m1272 329.926c0-68.441-55.38-230.8486-123.69-230.8486s-123.69 162.4076-123.69 230.8486c0 32.866 13.04 64.387 36.23 87.627 23.2 23.24 54.66 36.296 87.46 36.296 32.81 0 64.27-13.056 87.46-36.296 23.2-23.24 36.23-54.761 36.23-87.627z" fill="#f2f2f2"/><path d="m1148.92 630.029c.32 0 .62-.107.85-.298s.35-.449.35-.719v-426.347c0-.27-.12-.529-.35-.719-.23-.191-.53-.298-.85-.298s-.63.107-.86.298c-.22.19-.35.449-.35.719v426.347c0 .27.13.528.35.719.23.191.54.298.86.298z" fill="#3f3d56"/><path d="m1148.72 284.91c.13.001.26-.026.39-.076.12-.051.23-.126.33-.22l48.66-48.664c.19-.19.29-.447.29-.714s-.11-.522-.3-.711c-.18-.189-.44-.296-.71-.296-.26-.001-.52.104-.71.291l-48.66 48.665c-.15.141-.24.321-.28.517s-.02.4.06.584c.07.185.2.343.37.454.16.111.36.17.56.17z" fill="#3f3d56"/><path d="m1149.1 370.587c.2 0 .4-.06.57-.173.17-.112.3-.272.37-.458.08-.187.1-.393.06-.591-.04-.199-.13-.381-.28-.524l-82.43-82.429c-.19-.19-.45-.296-.72-.295s-.53.109-.72.3-.3.449-.3.719.11.53.3.722l82.43 82.429c.09.095.2.171.33.222.12.052.26.078.39.078z" fill="#3f3d56"/><path d="m1114.67 476.318c-.19-1.245-.09-2.516.27-3.723.36-1.206.98-2.318 1.82-3.259.83-.94 1.87-1.685 3.02-2.183 1.16-.497 2.41-.735 3.67-.697l55.17-55.776 10.89 15.234-57.65 50.036c-.2 2.11-1.17 4.072-2.73 5.513-1.55 1.442-3.58 2.263-5.7 2.309-2.12.045-4.18-.689-5.8-2.062-1.61-1.374-2.67-3.292-2.96-5.392z" fill="#ffb8b8"/><path d="m1140.8 444.111 14.08 14.065c.67.67 1.58 1.047 2.53 1.051s1.87-.366 2.55-1.031l38.47-37.825c1.33-1.308 2.39-2.867 3.11-4.586.73-1.72 1.1-3.565 1.11-5.431s-.36-3.714-1.07-5.438-1.76-3.29-3.08-4.606c-1.32-1.317-2.89-2.359-4.62-3.065-1.73-.707-3.57-1.064-5.44-1.051s-3.71.395-5.43 1.125c-1.71.73-3.27 1.794-4.57 3.128l-37.67 38.591c-.66.682-1.03 1.595-1.03 2.544.01.948.39 1.857 1.06 2.529z" fill="#b4d4de"/><path d="m1190.18 375.075c-10.88 0-19.69-8.816-19.69-19.692s8.81-19.692 19.69-19.692c10.87 0 19.69 8.816 19.69 19.692s-8.82 19.692-19.69 19.692z" fill="#ffb8b8"/><path d="m1256.72 591.363-4.99 8.47-35.04-15.2 7.35-12.503z" fill="#ffb8b8"/><path d="m1255.22 587.574-9.82 16.682v.001c-.82 1.396-1.36 2.941-1.58 4.545-.23 1.604-.13 3.237.27 4.806.41 1.568 1.12 3.041 2.1 4.334.97 1.294 2.19 2.382 3.59 3.204l.34.203 16.08-27.313z" fill="#2f2e41"/><path d="m1198.95 621.88h-9.83l-4.68-37.914h14.51z" fill="#ffb8b8"/><path d="m1201.45 618.671-19.36-.001c-1.62 0-3.22.319-4.72.939-1.49.62-2.85 1.528-4 2.674-1.15 1.145-2.05 2.505-2.67 4.002s-.94 3.101-.94 4.721v.401l31.69.001z" fill="#2f2e41"/><path d="m1238.46 598.909c.57.001 1.13-.132 1.63-.387.51-.256.94-.626 1.28-1.082l9.48-12.875c.29-.393.49-.841.61-1.315.11-.475.12-.968.04-1.448-.09-.48-.27-.939-.53-1.347-.27-.409-.62-.759-1.02-1.03l-42.19-28.175 25.46-66.927-54.44 4.491-1.83 57.514c-.17 5.238 1.08 10.424 3.63 15.003s6.3 8.379 10.84 10.993l45.24 26.101c.55.317 1.17.484 1.8.484z" fill="#2f2e41"/><path d="m1198.65 614.183c.93-.002 1.83-.365 2.5-1.014s1.06-1.533 1.1-2.466l1.99-56.029-24.7-1.301 1.97 56.431c.03.894.39 1.746 1.01 2.388s1.46 1.03 2.36 1.086l13.52.897c.09.005.17.008.25.008z" fill="#2f2e41"/><path d="m1172.49 499.94c6.28 0 28.23-7.068 35.85-9.588 1.14.912 7.4 5.595 14.72 4.739 4.51-.529 8.48-3.082 11.8-7.589 7.33-9.953-1.73-52.637-10.62-86.692-1.78-6.883-6.16-12.808-12.22-16.528s-13.33-4.946-20.27-3.42c-5.03 1.112-9.66 3.604-13.35 7.199-3.7 3.594-6.32 8.148-7.57 13.149-1.67 6.813-.23 14.828.82 20.68.49 2.752.88 4.925.75 5.993-.51 4.128-3.38 68.865-1.54 71.63.2.294.77.427 1.63.427z" fill="#b4d4de"/><path d="m1195.48 500.055c-1.01-.752-1.85-1.716-2.44-2.825-.6-1.108-.95-2.334-1.02-3.592-.07-1.257.13-2.514.6-3.684.47-1.169 1.18-2.222 2.1-3.085l-.39-78.447 18.48 3.076-5.43 76.145c1.35 1.637 2.05 3.712 1.97 5.83-.09 2.119-.94 4.134-2.41 5.664s-3.44 2.468-5.56 2.637c-2.11.17-4.21-.442-5.9-1.719z" fill="#ffb8b8"/><path d="m1191.2 458.801h19.9c.95-.002 1.87-.379 2.54-1.048.68-.669 1.06-1.576 1.07-2.527l.49-53.952c.02-1.866-.34-3.716-1.04-5.445-.7-1.728-1.74-3.3-3.05-4.624-1.32-1.324-2.88-2.375-4.6-3.091-1.73-.717-3.57-1.084-5.44-1.082s-3.71.374-5.43 1.095c-1.72.72-3.28 1.775-4.6 3.102-1.31 1.328-2.34 2.902-3.04 4.632s-1.05 3.582-1.02 5.447l.62 53.927c.01.948.4 1.854 1.07 2.521s1.58 1.042 2.53 1.045z" fill="#b4d4de"/><path d="m1195.19 374.993c9.02.017 17.52-7.11 19.09-15.99.56-3.488.3-7.059-.74-10.434-1.13-3.842-3.08-7.396-5.7-10.424-2.63-3.027-5.87-5.456-9.51-7.124s-7.6-2.536-11.61-2.545c-4-.009-7.96.841-11.61 2.492-2.42 1.092-4.79 2.659-5.9 5.065-1.1 2.406-.41 5.769 2.01 6.852 1.58.707 3.56.36 4.96 1.376 2.01 1.458 1.49 4.563.59 6.88-.89 2.317-1.91 5.12-.4 7.097 1.4 1.842 4.2 1.785 6.41 1.092 2.21-.694 4.39-1.855 6.7-1.618 3.36.344 5.77 3.686 6.22 7.034.44 3.347-.61 6.693-1.65 9.907z" fill="#2f2e41"/><path d="m1121.11 475.862c-12.79-2.892-27.28 7.114-27.73 20.548-.13 3.778.98 7.746 3.89 10.316 2.4 2.122 5.97 3.192 9.07 2.155 5.97-1.996 6.29-10.316 3.09-14.76-4.34-6.017-12.93-7.044-19.75-6.329-8.33.875-16.26 4.53-22.9 9.539-13.31 10.029-21.79 25.399-28.65 40.248-7.02 15.234-12.12 31.279-15.2 47.769-.38 2.071-.74 4.148-1.06 6.23-.09.305-.3.562-.58.715-.28.154-.6.191-.91.104-.3-.096-.56-.304-.71-.582s-.19-.603-.11-.909c2.81-17.995 7.99-35.536 15.42-52.165 7.18-16.093 16.24-32.787 30.64-43.527 7.18-5.354 15.66-9.079 24.63-9.876 7.56-.671 16.5.927 21.2 7.497 3.71 5.183 3.33 13.797-2.4 17.407-3.16 1.985-7.16 1.753-10.44.21-1.73-.858-3.26-2.083-4.48-3.591s-2.09-3.262-2.56-5.141c-2.04-7.461 1.06-15.531 6.36-20.863 4.97-5.019 11.73-7.862 18.8-7.907 1.7.018 3.4.22 5.05.602 1.51.342.84 2.651-.67 2.31z" fill="#ccc"/><path d="m1059.42 623.598 7.95-13.573-9.8-5.741-7.95 13.572v.001c-.76 1.299-.98 2.848-.6 4.306.39 1.457 1.33 2.704 2.63 3.465 1.3.762 2.85.975 4.31.595 1.45-.381 2.7-1.325 3.46-2.625z" fill="#b4d4de"/><path d="m1085.7 595.387c-3.86 0-6.99-3.13-6.99-6.991s3.13-6.99 6.99-6.99c3.87 0 7 3.129 7 6.99s-3.13 6.991-7 6.991z" fill="#b4d4de"/><path d="m1028.66 623.598 7.95-13.573-9.8-5.741-7.95 13.572c-.76 1.3-.97 2.848-.59 4.304.38 1.457 1.33 2.702 2.63 3.463 1.29.761 2.84.975 4.3.595 1.46-.379 2.7-1.322 3.46-2.62z" fill="#b4d4de"/><path d="m1084.38 602.479c-.01-3.938-1.57-7.714-4.36-10.499-2.78-2.785-6.56-4.351-10.5-4.356h-47.02c-1.67.002-3.26.664-4.44 1.841-1.18 1.178-1.84 2.773-1.84 4.438v5.351c0 4.794 1.91 9.389 5.3 12.779 3.39 3.389 7.99 5.296 12.78 5.301h35.22c3.94-.004 7.72-1.571 10.5-4.356 2.79-2.785 4.35-6.56 4.36-10.499z" fill="#3f3d56"/><path d="m1073.53 625.348v-15.729h-11.36v15.729c0 1.506.6 2.951 1.67 4.016 1.06 1.065 2.51 1.664 4.01 1.664 1.51 0 2.95-.599 4.02-1.664 1.06-1.065 1.66-2.51 1.66-4.016z" fill="#3f3d56"/><path d="m1040.57 625.348v-15.729h-11.36v15.729c0 .746.15 1.486.43 2.176.29.689.7 1.316 1.23 1.845.53.528 1.16.947 1.84 1.233.69.285 1.43.433 2.18.433s1.49-.148 2.18-.433c.68-.286 1.31-.705 1.84-1.233.53-.529.94-1.156 1.23-1.845.28-.69.43-1.43.43-2.176z" fill="#3f3d56"/><path d="m994.352 563.118c-1.162-1.441-2.849-2.363-4.69-2.562s-3.685.34-5.129 1.5c-1.444 1.159-2.368 2.844-2.571 4.685-.203 1.84.333 3.686 1.489 5.132l11.491 14.307 10.898-8.755z" fill="#b4d4de"/><path d="m1022.03 591.302-9.2-11.462c-2.24-2.78-5.49-4.559-9.04-4.947-3.55-.387-7.106.649-9.892 2.881l-2.876 2.31c-3.315 2.669-5.436 6.543-5.898 10.774s.773 8.472 3.434 11.794l7.585 9.443c.838 1.041 2.055 1.707 3.383 1.852 1.324.145 2.664-.243 3.704-1.079l18.03-14.479c1.04-.838 1.71-2.055 1.85-3.384.15-1.328-.24-2.66-1.08-3.703z" fill="#3f3d56"/><path d="m992.984 561.415c-.395-.492-.883-.902-1.437-1.205-.553-.304-1.161-.495-1.788-.564-.628-.068-1.263-.012-1.868.164-.606.177-1.171.472-1.664.867-.492.395-.901.883-1.204 1.437-.304.553-.495 1.161-.564 1.788-.068.628-.012 1.263.164 1.868.177.606.472 1.171.867 1.664l12.859 16.01 7.491-6.019z" fill="#3f3d56"/><path d="m1011.4 588.177-19.753 15.868c-1.44 1.163-2.36 2.849-2.558 4.689-.199 1.84.34 3.684 1.499 5.127s2.843 2.368 4.683 2.571 3.685-.331 5.129-1.486l19.76-15.869z" fill="#3f3d56"/><path d="m989.3 614.895c-1.27-1.581-1.588-3.436-.709-4.141.879-.706 2.621.004 3.891 1.586 1.27 1.581 1.588 3.436.709 4.141-.879.706-2.621-.004-3.891-1.586z" fill="#b4d4de"/><path d="m1094.76 273.502c0-81.049-65.7-273.374681-146.749-273.374681s-146.752 192.325681-146.752 273.374681c0 38.921 15.462 76.248 42.983 103.769 27.521 27.522 64.848 42.983 103.769 42.983 38.922 0 76.249-15.461 103.769-42.983 27.52-27.521 42.98-64.848 42.98-103.769z" fill="#b4d4de"/><path d="m948 632c.265 0 .52-.128.707-.355.188-.227.293-.535.293-.856v-507.578c0-.321-.105-.629-.293-.856-.187-.227-.442-.355-.707-.355s-.52.128-.707.355c-.188.227-.293.535-.293.856v507.578c0 .321.105.629.293.856.187.227.442.355.707.355z" fill="#3f3d56"/><path d="m948.012 221.051c.158 0 .315-.031.462-.092.146-.06.279-.149.391-.261l58.085-58.084c.11-.112.2-.245.26-.392.07-.147.1-.304.1-.463s-.03-.317-.09-.464-.15-.281-.27-.393c-.11-.113-.24-.202-.39-.263-.15-.06-.3-.091-.46-.091-.16.001-.32.033-.47.094-.14.062-.28.152-.39.265l-58.082 58.084c-.168.169-.283.384-.33.618-.046.234-.022.477.069.697.091.221.246.409.444.542.199.132.432.203.671.203z" fill="#3f3d56"/><path d="m948.011 321.606c.239 0 .472-.071.67-.203.199-.133.354-.321.445-.542.091-.22.115-.463.069-.697-.047-.234-.162-.449-.331-.618l-97.272-97.273c-.112-.113-.245-.203-.392-.265-.146-.061-.304-.093-.463-.094-.159 0-.317.03-.464.091s-.281.15-.393.262c-.113.113-.202.247-.263.394-.06.147-.091.304-.091.463.001.16.033.317.094.464.062.146.152.28.265.391l97.273 97.274c.112.112.245.201.391.261.147.061.304.092.462.092z" fill="#3f3d56"/><path d="m618.962 626.124c1.023-.001 2.027-.264 2.912-.763.885-.498 1.618-1.214 2.127-2.076.508-.861.772-1.837.767-2.83-.005-.992-.281-1.965-.798-2.822l-8.139-13.479-10.037 5.702 8.14 13.479c.514.85 1.248 1.555 2.13 2.044.883.49 1.881.746 2.898.745z" fill="#b4d4de"/><path d="m586.82 595.167c-3.86 0-6.99-3.353-6.99-7.49 0-4.136 3.13-7.489 6.99-7.489 3.861 0 6.991 3.353 6.991 7.489 0 4.137-3.13 7.49-6.991 7.49z" fill="#b4d4de"/><path d="m649.918 626.124c1.024-.001 2.028-.264 2.913-.763.885-.498 1.619-1.214 2.127-2.076.508-.861.772-1.837.767-2.83-.005-.992-.281-1.966-.798-2.822l-8.14-13.479-10.036 5.702 8.14 13.479c.514.85 1.248 1.555 2.13 2.044.883.49 1.881.746 2.897.745z" fill="#b4d4de"/><path d="m603.055 617.137h36.125c4.916-.006 9.629-1.928 13.105-5.346 3.477-3.418 5.432-8.052 5.438-12.886v-5.396c-.002-1.678-.681-3.287-1.889-4.474-1.207-1.187-2.843-1.855-4.551-1.857h-48.228c-4.041 0-7.916 1.578-10.773 4.387-2.858 2.809-4.463 6.62-4.463 10.592 0 3.973 1.605 7.783 4.463 10.592 2.857 2.809 6.732 4.388 10.773 4.388z" fill="#3f3d56"/><path d="m604.795 631.117c1.589-.001 3.112-.616 4.235-1.709s1.755-2.574 1.757-4.119v-16.141h-11.983v16.141c.001 1.545.633 3.026 1.757 4.119 1.123 1.093 2.646 1.708 4.234 1.709z" fill="#3f3d56"/><path d="m638.749 631.117c1.588-.001 3.111-.616 4.234-1.709 1.124-1.093 1.755-2.574 1.757-4.119v-16.141h-11.983v16.141c.002 1.545.633 3.026 1.757 4.119 1.123 1.093 2.646 1.708 4.235 1.709z" fill="#3f3d56"/><path d="m667.709 576.322 11.377 8.859 11.993-14.476c1.205-1.464 1.763-3.331 1.551-5.192s-1.177-3.565-2.683-4.738-3.43-1.718-5.351-1.518c-1.921.201-3.681 1.132-4.894 2.589z" fill="#b4d4de"/><path d="m652.655 598.241 18.424 14.769c1.066.852 2.427 1.248 3.784 1.1 1.358-.148 2.601-.827 3.458-1.889l7.75-9.632c2.72-3.387 3.982-7.713 3.51-12.028-.472-4.316-2.64-8.268-6.027-10.99l-2.94-2.356c-2.846-2.276-6.481-3.333-10.107-2.938-3.627.395-6.948 2.21-9.235 5.046l-9.407 11.69c-.854 1.064-1.251 2.423-1.102 3.778.148 1.355.828 2.596 1.892 3.45z" fill="#3f3d56"/><path d="m667.709 576.13 7.689 6.055 13.194-16.105c.819-1 1.199-2.278 1.057-3.552-.142-1.275-.794-2.442-1.814-3.245s-2.323-1.176-3.623-1.036c-1.3.139-2.491.779-3.31 1.778z" fill="#3f3d56"/><path d="m653.728 598.333 19.659 16.24c1.439 1.182 3.275 1.73 5.106 1.522s3.507-1.154 4.66-2.631 1.69-3.364 1.492-5.248c-.197-1.883-1.113-3.609-2.546-4.799l-19.659-16.239z" fill="#3f3d56"/><path d="m681.279 615.404c-.717-.576-.458-2.089.579-3.379 1.036-1.291 2.458-1.87 3.175-1.294.717.575.458 2.088-.579 3.379-1.036 1.291-2.458 1.87-3.175 1.294z" fill="#b4d4de"/><path d="m738.611 621.63c0 2.252.875 4.411 2.434 6.002 1.559 1.592 3.673 2.487 5.877 2.487 4.591 0 4.75-4.245 1.188-8.489 3.562-2.425 3.403-8.488-1.188-8.488-2.204 0-4.318.894-5.877 2.486s-2.434 3.751-2.434 6.002z" fill="#ccc"/><path d="m713.645 621.63c0 2.252-.876 4.411-2.434 6.002-1.559 1.592-3.673 2.487-5.878 2.487-4.59 0-4.749-4.245-1.187-8.489-3.562-2.425-3.403-8.488 1.187-8.488 2.205 0 4.319.894 5.878 2.486 1.558 1.592 2.434 3.751 2.434 6.002z" fill="#ccc"/><path d="m708.652 617.136h34.952v8.988h-34.952z" fill="#ccc"/><path d="m381.672 432.87c-8.163 0-14.78-6.617-14.78-14.78 0-8.162 6.617-14.779 14.78-14.779 8.162 0 14.779 6.617 14.779 14.779 0 8.163-6.617 14.78-14.779 14.78z" fill="#a0616a"/><path d="m382.627 500.945c.285-.888.379-1.826.276-2.753-.102-.927-.4-1.822-.873-2.626s-1.11-1.499-1.87-2.04c-.76-.54-1.626-.914-2.541-1.096-.29-.057-.583-.093-.878-.109l-15.568-24.986 14.221-13.519c.543-.517.979-1.136 1.281-1.822.303-.686.467-1.425.483-2.174.015-.75-.118-1.495-.392-2.193s-.684-1.334-1.205-1.873c-.522-.538-1.145-.968-1.833-1.265-.689-.296-1.429-.454-2.179-.462-.749-.009-1.493.131-2.189.411-.695.281-1.328.696-1.862 1.222l-19.634 19.361-.04.048c-.607.924-.9 2.02-.836 3.123.065 1.104.483 2.158 1.194 3.005l21.813 25.799c-.065.207-.119.417-.162.629-.183.915-.17 1.858.038 2.768.207.909.604 1.764 1.165 2.51.561.745 1.274 1.363 2.09 1.814.817.45 1.719.724 2.649.801.188.017.375.025.561.025 1.399-.006 2.761-.454 3.891-1.279 1.13-.826 1.97-1.987 2.4-3.319z" fill="#a0616a"/><path d="m406.013 623.783h7.378l3.509-28.455-10.888.001z" fill="#a0616a"/><path d="m403.832 631.236 24.389-.001v-.602c0-1.255-.248-2.498-.728-3.658s-1.185-2.214-2.072-3.101c-.888-.888-1.942-1.592-3.102-2.073-1.159-.48-2.403-.727-3.658-.727h-14.83z" fill="#2f2e41"/><path d="m332.688 613.583 6.339 3.775 17.574-22.654-9.356-5.57z" fill="#a0616a"/><path d="m347.956 631.347.308-.517c1.297-2.179 1.675-4.783 1.052-7.241-.623-2.457-2.197-4.567-4.375-5.864l-12.743-7.587-5.198 8.732z" fill="#2f2e41"/><path d="m417.831 611.252c4.942-58.192 7.882-112.252-10.184-134.305l-.139-.171-30.404 12.161-.05.109c-.103.223-10.214 22.465-7.855 37.425l-7.5 34.497-24.452 40.943c-.197.33-.321.698-.365 1.079s-.007.768.11 1.134c.117.365.31.702.566.987.257.286.572.514.923.668l10.626 4.676c.6.26 1.274.297 1.898.102.624-.196 1.157-.609 1.501-1.165l26.6-43.374 15.024-33.268c.082-.18.22-.329.395-.423.174-.094.375-.128.571-.096.195.031.375.126.512.27.136.144.221.328.242.525l8.328 78.285c.07.666.384 1.281.881 1.729.498.447 1.143.694 1.812.693h8.261c.678-.004 1.33-.26 1.829-.719s.809-1.087.87-1.762z" fill="#2f2e41"/><path d="m407.545 477.408.144-.07.023-.159c1.136-7.949-.209-16.781-3.996-26.251-1.866-4.635-5.336-8.445-9.776-10.736s-9.556-2.911-14.415-1.746c-2.799.69-5.424 1.953-7.709 3.71s-4.18 3.97-5.566 6.498c-1.367 2.502-2.2 5.261-2.446 8.101-.246 2.841.101 5.702 1.019 8.402 4.774 13.96 10.967 27.022 11.029 27.153l.13.272z" fill="#b4d4de"/><path d="m429.421 510.375c.21-1.606-.165-3.233-1.054-4.586s-2.235-2.342-3.792-2.787l-28.43-54.582c-.374-.613-.865-1.146-1.446-1.569-.58-.422-1.238-.726-1.936-.893-.699-.168-1.423-.195-2.132-.082-.709.114-1.388.367-1.999.744s-1.141.871-1.56 1.454c-.42.583-.72 1.243-.883 1.942s-.187 1.423-.069 2.131c.118.709.374 1.387.755 1.995l29.102 54.203c-.062.33-.098.663-.108.999-.025.916.136 1.828.472 2.681.337.853.842 1.629 1.486 2.282.644.652 1.414 1.168 2.262 1.516s1.758.521 2.675.508c1.005-.015 1.995-.251 2.897-.694.903-.442 1.697-1.078 2.325-1.863.786-.977 1.283-2.155 1.435-3.399z" fill="#a0616a"/><path d="m399.591 409.742h-23.468v-10.23c5.151-2.046 10.192-3.787 13.239 0 2.713 0 5.315 1.078 7.233 2.996 1.919 1.919 2.996 4.521 2.996 7.234z" fill="#2f2e41"/><path d="m374.824 397.707c-14.03 0-17.957 17.585-17.957 27.506 0 5.533 2.503 7.512 6.435 8.181l1.388-7.405 3.252 7.724c1.105.006 2.265-.016 3.468-.038l1.103-2.271 2.459 2.23c9.848.015 17.808 1.45 17.808-8.421 0-9.921-3.444-27.506-17.956-27.506z" fill="#2f2e41"/><path d="m1310.24 632.476h-1308.47893c-.46706 0-.914999-.106-1.245265-.293-.330265-.188-.515805-.442-.515805-.707s.18554-.52.515805-.707c.330266-.188.778205-.293 1.245265-.293h1308.47893c.47 0 .91.105 1.24.293.33.187.52.442.52.707s-.19.519-.52.707c-.33.187-.77.293-1.24.293z" fill="#3f3d56"/><path d="m248.561 552.409c.343 0 .683-.068 1.001-.2.317-.131.606-.324.849-.567s.435-.531.567-.849c.131-.317.199-.657.199-1.001s-.068-.684-.199-1.001c-.132-.318-.324-.606-.567-.849s-.532-.436-.849-.567c-.318-.132-.658-.2-1.001-.2h-24.858v-10.466h24.858c.694 0 1.359-.276 1.85-.766.49-.491.766-1.157.766-1.851 0-.693-.276-1.359-.766-1.85-.491-.49-1.156-.766-1.85-.766h-211.9444c-.694 0-1.3595.276-1.8502.766-.4907.491-.7664 1.157-.7664 1.85 0 .694.2757 1.36.7664 1.851.4907.49 1.1562.766 1.8502.766h24.8576v10.466h-24.8576c-.694 0-1.3595.276-1.8502.767-.4907.49-.7664 1.156-.7664 1.85s.2757 1.36.7664 1.85c.4907.491 1.1562.767 1.8502.767h24.8576v10.466h-24.8576c-.694 0-1.3595.276-1.8502.766-.4907.491-.7664 1.157-.7664 1.851s.2757 1.359.7664 1.85c.4907.49 1.1562.766 1.8502.766h24.8576v10.467h-22.241c-1.3867.001-2.7159.554-3.6957 1.535-.9799.981-1.5302 2.311-1.5302 3.698 0 1.386.5503 2.716 1.5302 3.698.9798.981 2.309 1.533 3.6957 1.535h21.1729c-.1544.419-.2356.862-.2401 1.308v36.632c0 1.041.4135 2.04 1.1496 2.776.736.736 1.7343 1.149 2.7752 1.149 1.041 0 2.0393-.413 2.7753-1.149.7361-.736 1.1496-1.735 1.1496-2.776v-36.632c-.0045-.446-.0858-.889-.2402-1.308h149.6265c-.155.419-.236.862-.241 1.308v36.632c0 1.041.414 2.04 1.15 2.776s1.734 1.149 2.775 1.149 2.04-.413 2.776-1.149 1.149-1.735 1.149-2.776v-36.632c-.004-.446-.086-.889-.24-1.308h21.173c.688.001 1.369-.134 2.005-.396.636-.263 1.213-.648 1.7-1.134s.873-1.064 1.136-1.699c.264-.635.399-1.316.399-2.004s-.135-1.369-.399-2.005c-.263-.635-.649-1.212-1.136-1.698s-1.064-.872-1.7-1.134c-.636-.263-1.317-.397-2.005-.396h-22.241v-10.467h24.858c.344.001.684-.066 1.002-.198.319-.131.608-.323.851-.566.244-.244.437-.532.569-.85.131-.318.199-.658.199-1.002 0-.345-.068-.685-.199-1.003-.132-.318-.325-.606-.569-.85-.243-.243-.532-.435-.851-.566-.318-.132-.658-.199-1.002-.198h-24.858v-10.466zm-181.8536-15.7h151.7626v10.466h-151.7626zm151.7626 41.866h-151.7626v-10.467h151.7626zm0-15.7h-151.7626v-10.466h151.7626z" fill="#3f3d56"/></svg>