<svg width="70" height="79" fill="none" xmlns="http://www.w3.org/2000/svg"><path d="M69.086 33.836C69.086 23.804 58.828 0 46.174 0S23.262 23.804 23.262 33.836c0 4.817 2.414 9.437 6.711 12.843C34.27 50.086 40.097 52 46.174 52s11.904-1.913 16.201-5.32c4.297-3.406 6.71-8.026 6.71-12.843Z" fill="#B4D4DE"/><path d="M46.172 67.016a.18.18 0 0 0 .11-.036.112.112 0 0 0 .046-.087V15.207a.112.112 0 0 0-.046-.087.18.18 0 0 0-.11-.036.18.18 0 0 0-.11.036.112.112 0 0 0-.046.088v51.685c0 .032.016.064.046.087a.18.18 0 0 0 .11.036Z" fill="#3F3D56"/><path d="M46.174 27.344c.025 0 .05-.004.072-.011a.196.196 0 0 0 .061-.033l9.069-7.189a.152.152 0 0 0 .04-.048.122.122 0 0 0 .001-.115.152.152 0 0 0-.04-.049.197.197 0 0 0-.062-.032.23.23 0 0 0-.206.033l-9.068 7.189a.143.143 0 0 0-.052.077.122.122 0 0 0 .01.086c.015.027.04.05.07.067a.225.225 0 0 0 .105.025ZM46.174 39.79a.225.225 0 0 0 .105-.025.163.163 0 0 0 .069-.067.121.121 0 0 0 .01-.087.143.143 0 0 0-.05-.076L31.12 27.495a.195.195 0 0 0-.06-.032.231.231 0 0 0-.207.032.152.152 0 0 0-.04.048.124.124 0 0 0 0 .115c.01.018.023.035.041.049l15.187 12.04a.199.199 0 0 0 .06.032.232.232 0 0 0 .073.01Z" fill="#3F3D56"/><path d="M33.418 76.98c.2 0 .398-.051.571-.149.174-.098.318-.238.417-.407a1.081 1.081 0 0 0-.006-1.11l-1.597-2.644-1.969 1.119 1.597 2.645c.101.166.245.305.418.4.173.097.37.147.569.147ZM27.11 70.906c-.757 0-1.37-.657-1.37-1.47 0-.81.613-1.469 1.37-1.469.758 0 1.373.658 1.373 1.47 0 .812-.615 1.47-1.372 1.47ZM39.492 76.98c.2 0 .398-.051.571-.149.174-.098.318-.238.418-.407a1.08 1.08 0 0 0-.007-1.11l-1.596-2.644-1.97 1.119 1.597 2.645c.101.166.245.305.418.4.173.097.37.147.569.147Z" fill="#B4D4DE"/><path d="M30.296 75.217h7.089a3.674 3.674 0 0 0 2.571-1.049 3.551 3.551 0 0 0 1.067-2.528V70.58c0-.33-.133-.645-.37-.878a1.276 1.276 0 0 0-.893-.364h-9.464c-.793 0-1.553.31-2.113.86a2.915 2.915 0 0 0-.876 2.08c0 .779.315 1.526.876 2.077.56.552 1.32.861 2.113.861Z" fill="#3F3D56"/><path d="M30.638 77.96c.312 0 .61-.12.83-.335a1.13 1.13 0 0 0 .346-.808V73.65h-2.352v3.167c0 .303.125.594.345.808.22.215.52.335.83.335ZM37.3 77.96c.312 0 .61-.12.831-.335a1.13 1.13 0 0 0 .345-.808V73.65h-2.352v3.167c0 .303.125.594.345.808.22.215.52.335.831.335Z" fill="#3F3D56"/><path d="m42.983 67.209 2.232 1.738 2.353-2.84a1.359 1.359 0 0 0-.222-1.949 1.463 1.463 0 0 0-2.01.21l-2.353 2.84Z" fill="#B4D4DE"/><path d="m40.029 71.51 3.615 2.897a1.013 1.013 0 0 0 1.421-.154l1.52-1.89a3.212 3.212 0 0 0-.493-4.517l-.577-.462a2.707 2.707 0 0 0-3.795.413l-1.846 2.294a1.008 1.008 0 0 0 .155 1.419Z" fill="#3F3D56"/><path d="m42.983 67.171 1.508 1.188 2.59-3.16a.935.935 0 0 0-.15-1.334.981.981 0 0 0-1.36.146l-2.588 3.16ZM40.24 71.528l3.857 3.186a1.338 1.338 0 0 0 1.916-.217 1.432 1.432 0 0 0-.207-1.972L41.95 69.34l-1.71 2.189Z" fill="#3F3D56"/><path d="M45.645 74.877c-.14-.113-.09-.41.114-.663.203-.253.482-.367.623-.254.14.113.09.41-.114.663-.203.254-.482.367-.623.254Z" fill="#B4D4DE"/><path d="M56.895 76.099c0 .442.172.865.477 1.178.306.312.721.487 1.154.487.9 0 .932-.832.233-1.665.699-.476.667-1.666-.233-1.666-.433 0-.848.176-1.154.488a1.684 1.684 0 0 0-.477 1.178ZM51.996 76.099c0 .442-.172.865-.478 1.178-.305.312-.72.487-1.153.487-.9 0-.932-.832-.233-1.665-.699-.476-.667-1.666.233-1.666.433 0 .848.176 1.153.488.306.313.478.736.478 1.178Z" fill="#CCC"/><path d="M51.017 75.217h6.858v1.764h-6.858v-1.764Z" fill="#CCC"/><path d="M37.815 41.287c0-8.273-8.465-27.904-18.908-27.904C8.465 13.383 0 33.013 0 41.287c.003 3.973 1.997 7.783 5.542 10.592 3.546 2.809 8.353 4.387 13.365 4.387 5.013 0 9.82-1.578 13.366-4.387 3.545-2.809 5.538-6.619 5.542-10.592Z" fill="#E6E6E6"/><path d="M18.924 78.208a.27.27 0 0 0 .071-.01.21.21 0 0 0 .061-.027.134.134 0 0 0 .04-.04.09.09 0 0 0 .015-.048V25.9c0-.033-.02-.065-.055-.088a.243.243 0 0 0-.132-.036.243.243 0 0 0-.133.036c-.035.023-.055.055-.055.088v52.184a.09.09 0 0 0 .015.048c.01.015.023.029.04.04.018.012.038.02.061.027a.27.27 0 0 0 .072.01Z" fill="#3F3D56"/><path d="M18.907 35.933c.02 0 .041-.003.06-.01a.162.162 0 0 0 .05-.026l7.484-5.929a.112.112 0 0 0 .045-.087.112.112 0 0 0-.045-.087.177.177 0 0 0-.11-.036.178.178 0 0 0-.11.036l-7.483 5.929a.118.118 0 0 0-.043.063.1.1 0 0 0 .009.071.134.134 0 0 0 .057.055c.026.014.056.021.086.021ZM18.907 46.197c.031 0 .061-.007.087-.02a.134.134 0 0 0 .057-.056.1.1 0 0 0 .009-.071.118.118 0 0 0-.043-.063l-12.532-9.93a.162.162 0 0 0-.05-.026.191.191 0 0 0-.17.027.126.126 0 0 0-.034.04.102.102 0 0 0 0 .094c.008.015.02.029.034.04l12.533 9.929a.188.188 0 0 0 .11.036Z" fill="#3F3D56"/></svg>